<svg width="75" height="37" viewBox="0 0 75 37" fill="none" xmlns="http://www.w3.org/2000/svg">
<path d="M10.752 28.472H23.36V9.304L16.16 24.728L8.96 9.272V29.432L8 29.4V7H8.96L16.16 22.456L23.36 7.032L24.32 7V29.432L10.752 29.4V28.472Z" fill="black"/>
<path d="M64.2528 20.836C63.7888 20.836 63.3808 20.788 63.0288 20.692C62.6848 20.596 62.3968 20.428 62.1648 20.188C61.9328 19.948 61.7608 19.616 61.6488 19.192C61.5368 18.76 61.4808 18.212 61.4808 17.548C61.4808 16.876 61.5368 16.328 61.6488 15.904C61.7608 15.472 61.9328 15.14 62.1648 14.908C62.3968 14.668 62.6848 14.504 63.0288 14.416C63.3808 14.32 63.7888 14.272 64.2528 14.272C64.7168 14.272 65.1208 14.32 65.4648 14.416C65.8168 14.512 66.1088 14.68 66.3408 14.92C66.5728 15.152 66.7448 15.484 66.8568 15.916C66.9768 16.34 67.0368 16.884 67.0368 17.548C67.0368 18.22 66.9768 18.772 66.8568 19.204C66.7448 19.628 66.5728 19.96 66.3408 20.2C66.1168 20.432 65.8288 20.596 65.4768 20.692C65.1248 20.788 64.7168 20.836 64.2528 20.836ZM64.2528 20.056C64.5488 20.056 64.8088 20.028 65.0328 19.972C65.2648 19.916 65.4568 19.804 65.6088 19.636C65.7608 19.468 65.8768 19.216 65.9568 18.88C66.0368 18.544 66.0768 18.1 66.0768 17.548C66.0768 16.988 66.0368 16.544 65.9568 16.216C65.8768 15.888 65.7608 15.64 65.6088 15.472C65.4568 15.304 65.2648 15.192 65.0328 15.136C64.8088 15.08 64.5488 15.052 64.2528 15.052C63.9488 15.052 63.6848 15.08 63.4608 15.136C63.2368 15.192 63.0488 15.304 62.8968 15.472C62.7448 15.64 62.6288 15.888 62.5488 16.216C62.4688 16.544 62.4288 16.988 62.4288 17.548C62.4288 18.1 62.4688 18.544 62.5488 18.88C62.6288 19.216 62.7448 19.468 62.8968 19.636C63.0488 19.804 63.2368 19.916 63.4608 19.972C63.6848 20.028 63.9488 20.056 64.2528 20.056ZM64.6608 14.896V14.356H65.7768C66.0568 14.356 66.2848 14.26 66.4608 14.068C66.6368 13.868 66.7248 13.512 66.7248 13H67.4208C67.4208 13.464 67.3488 13.836 67.2048 14.116C67.0688 14.396 66.8888 14.596 66.6648 14.716C66.4408 14.836 66.1928 14.896 65.9208 14.896H64.6608Z" fill="black"/>
<path d="M53.6407 20.764L51.6967 14.356H52.6687L54.2407 19.876L55.8607 14.356H56.6887L58.3087 19.876L59.8327 14.356H60.8047L58.8727 20.764H57.8287L56.2567 15.628L54.6727 20.764H53.6407Z" fill="black"/>
<path d="M44.7646 20.836C44.3006 20.836 43.8926 20.788 43.5406 20.692C43.1966 20.596 42.9086 20.428 42.6766 20.188C42.4446 19.948 42.2726 19.616 42.1606 19.192C42.0486 18.76 41.9926 18.212 41.9926 17.548C41.9926 16.876 42.0486 16.328 42.1606 15.904C42.2726 15.472 42.4446 15.14 42.6766 14.908C42.9086 14.668 43.1966 14.504 43.5406 14.416C43.8926 14.32 44.3006 14.272 44.7646 14.272C45.2286 14.272 45.6326 14.32 45.9766 14.416C46.3286 14.512 46.6206 14.68 46.8526 14.92C47.0846 15.152 47.2566 15.484 47.3686 15.916C47.4886 16.34 47.5486 16.884 47.5486 17.548C47.5486 18.22 47.4886 18.772 47.3686 19.204C47.2566 19.628 47.0846 19.96 46.8526 20.2C46.6286 20.432 46.3406 20.596 45.9886 20.692C45.6366 20.788 45.2286 20.836 44.7646 20.836ZM44.7646 20.056C45.0606 20.056 45.3206 20.028 45.5446 19.972C45.7766 19.916 45.9686 19.804 46.1206 19.636C46.2726 19.468 46.3886 19.216 46.4686 18.88C46.5486 18.544 46.5886 18.1 46.5886 17.548C46.5886 16.988 46.5486 16.544 46.4686 16.216C46.3886 15.888 46.2726 15.64 46.1206 15.472C45.9686 15.304 45.7766 15.192 45.5446 15.136C45.3206 15.08 45.0606 15.052 44.7646 15.052C44.4606 15.052 44.1966 15.08 43.9726 15.136C43.7486 15.192 43.5606 15.304 43.4086 15.472C43.2566 15.64 43.1406 15.888 43.0606 16.216C42.9806 16.544 42.9406 16.988 42.9406 17.548C42.9406 18.1 42.9806 18.544 43.0606 18.88C43.1406 19.216 43.2566 19.468 43.4086 19.636C43.5606 19.804 43.7486 19.916 43.9726 19.972C44.1966 20.028 44.4606 20.056 44.7646 20.056Z" fill="black"/>
<path d="M36.9295 20.836C36.4575 20.836 36.0695 20.696 35.7655 20.416C35.4615 20.136 35.3095 19.74 35.3095 19.228V18.772C35.3095 18.268 35.4735 17.86 35.8015 17.548C36.1375 17.236 36.6415 17.08 37.3135 17.08H39.4855V16.288C39.4855 16.024 39.4375 15.8 39.3415 15.616C39.2535 15.424 39.0895 15.276 38.8495 15.172C38.6175 15.068 38.2775 15.016 37.8295 15.016H35.8375V14.452C36.1175 14.404 36.4415 14.36 36.8095 14.32C37.1855 14.28 37.6255 14.26 38.1295 14.26C38.6495 14.252 39.0815 14.316 39.4255 14.452C39.7695 14.588 40.0215 14.804 40.1815 15.1C40.3495 15.388 40.4335 15.768 40.4335 16.24V20.764H39.7015L39.5215 20.032C39.4895 20.064 39.3895 20.12 39.2215 20.2C39.0615 20.28 38.8535 20.372 38.5975 20.476C38.3495 20.572 38.0775 20.656 37.7815 20.728C37.4935 20.8 37.2095 20.836 36.9295 20.836ZM37.3255 20.128C37.4695 20.136 37.6335 20.12 37.8175 20.08C38.0015 20.04 38.1895 19.996 38.3815 19.948C38.5735 19.892 38.7495 19.836 38.9095 19.78C39.0775 19.724 39.2135 19.676 39.3175 19.636C39.4215 19.596 39.4775 19.576 39.4855 19.576V17.56L37.5295 17.644C37.0735 17.66 36.7455 17.772 36.5455 17.98C36.3535 18.188 36.2575 18.456 36.2575 18.784V19.072C36.2575 19.328 36.3095 19.536 36.4135 19.696C36.5255 19.848 36.6615 19.956 36.8215 20.02C36.9895 20.084 37.1575 20.12 37.3255 20.128Z" fill="black"/>
<path d="M28.744 23.608V14.356H29.512L29.692 15.016C29.836 14.912 30.02 14.804 30.244 14.692C30.476 14.572 30.724 14.472 30.988 14.392C31.26 14.312 31.528 14.272 31.792 14.272C32.208 14.272 32.56 14.364 32.848 14.548C33.144 14.724 33.384 14.964 33.568 15.268C33.752 15.572 33.884 15.92 33.964 16.312C34.044 16.704 34.084 17.116 34.084 17.548C34.084 18.268 34 18.876 33.832 19.372C33.672 19.86 33.424 20.228 33.088 20.476C32.752 20.724 32.32 20.848 31.792 20.848C31.432 20.848 31.068 20.792 30.7 20.68C30.34 20.56 30.004 20.412 29.692 20.236V23.608H28.744ZM31.528 20.044C31.832 20.044 32.104 19.968 32.344 19.816C32.584 19.664 32.776 19.408 32.92 19.048C33.064 18.68 33.136 18.18 33.136 17.548C33.136 16.948 33.06 16.468 32.908 16.108C32.756 15.74 32.56 15.476 32.32 15.316C32.08 15.148 31.816 15.064 31.528 15.064C31.16 15.064 30.82 15.124 30.508 15.244C30.204 15.356 29.932 15.476 29.692 15.604V19.528C29.972 19.68 30.268 19.804 30.58 19.9C30.9 19.996 31.216 20.044 31.528 20.044Z" fill="black"/>
</svg>
